<svg xmlns="http://www.w3.org/2000/svg" viewBox="0 0 96 24"><defs><clipPath id="a"><path transform="translate(79 198)" fill="none" d="M0 0h96v24H0z"/></clipPath></defs><g transform="translate(-79 -198)" clip-path="url(#a)"><path d="M87.724 213.408q.264.024.528.024h3.164q.264 0 .528-.024l-2.064-5.592zM85.944 219q-.408-.1-.8-.156a5.524 5.524 0 00-.828-.06 5.359 5.359 0 00-.8.06 5.869 5.869 0 00-.74.156l1.416-3.192q.336-.72.744-1.668t.852-2.028q.444-1.08.924-2.256l.96-2.352q.264-.672.6-1.548t.652-1.728q.312-.852.576-1.536t.384-.972q.408.1.84.156a6.105 6.105 0 00.84.06 6.273 6.273 0 00.864-.06q.432-.06.84-.156.264.864.672 2.028t.876 2.448q.468 1.284.96 2.568t.924 2.388q.5 1.272.9 2.256t.756 1.86q.36.876.756 1.764t.896 1.968a9.736 9.736 0 00-1.56-.18q-.864-.036-1.584-.036-.768 0-1.548.06t-1.548.156q-.24-.912-.492-1.752t-.564-1.68q-.792 0-1.584-.012t-1.584-.012q-.624 0-1.26.012t-1.26.012a16.414 16.414 0 00-.576 1.7q-.24.868-.504 1.732zm21.6-2.424q.24 0 .96-.012t1.6-.048q.876-.036 1.764-.084a13.678 13.678 0 001.456-.144q-.048.264-.084.612a7.637 7.637 0 00-.036.78 5.973 5.973 0 00.036.66q.036.324.084.66-1.512-.12-2.7-.168t-2.36-.048q-1.3 0-2.976.048t-3.48.168a16.022 16.022 0 00.288-2.232q.072-1.176.072-2.208v-1.248q0-1.152-.012-2.1t-.024-1.788q-.012-.84-.036-1.62t-.048-1.62q-.048-1.1-.072-2.268a19.851 19.851 0 00-.144-2.1 21.7 21.7 0 003.072.216q.744 0 1.428-.048t1.4-.168q-.072.624-.108 1.668t-.072 2.22q-.036 1.176-.048 2.328t-.012 1.992v1.1q0 .336.012 1.116t.02 1.648q0 .864.012 1.632t.008 1.056zm15.744.672a3.1 3.1 0 001.488-.336 3.4 3.4 0 001.056-.876 4.452 4.452 0 00.7-1.26 9.376 9.376 0 00.404-1.476 12.207 12.207 0 00.188-1.524q.048-.768.048-1.416a20.174 20.174 0 00-.132-2.22 8.127 8.127 0 00-.552-2.208 4.3 4.3 0 00-1.224-1.692 3.242 3.242 0 00-2.148-.672 3.146 3.146 0 00-2.052.636 4.3 4.3 0 00-1.212 1.6 7.324 7.324 0 00-.576 2.1 17.014 17.014 0 00-.144 2.124q0 .744.036 1.572a12.269 12.269 0 00.18 1.632 9.057 9.057 0 00.408 1.524 4.323 4.323 0 00.732 1.284 3.326 3.326 0 001.152.888 3.814 3.814 0 001.648.32zm-.192-15.648a12.856 12.856 0 013.864.564 9.12 9.12 0 013.132 1.668 7.735 7.735 0 012.088 2.724 8.794 8.794 0 01.756 3.756 9.306 9.306 0 01-.768 3.924 7.75 7.75 0 01-2.1 2.772 8.5 8.5 0 01-3.156 1.62 14.316 14.316 0 01-3.912.516 12.067 12.067 0 01-3.72-.564 8.947 8.947 0 01-3.072-1.68 7.859 7.859 0 01-2.076-2.76 8.836 8.836 0 01-.756-3.732 9.143 9.143 0 01.744-3.8 7.8 7.8 0 012.052-2.76 8.787 8.787 0 013.084-1.68 12.622 12.622 0 013.84-.568zm12.7 9.48q0-.312-.012-1.068t-.012-1.6q0-.864-.012-1.608t-.012-1.032q0-.816-.048-1.8t-.168-2.16q.648.072 1.452.144t1.5.072q.672 0 1.5-.06t1.452-.156q-.072.84-.12 1.752t-.092 1.816q-.036.9-.048 1.728t-.012 1.524q.552.024 1.224.036t1.392.012q.624 0 1.32-.024t1.368-.024q0-.72-.012-1.572t-.048-1.74q-.036-.888-.084-1.788t-.12-1.716q.648.072 1.464.144t1.488.072q.672 0 1.5-.06t1.452-.156q-.144 1.512-.2 3.12t-.06 3.744q0 1.608.024 2.94t.06 2.544l.072 2.376q.036 1.164.084 2.46a22.553 22.553 0 00-3.144-.216q-.7 0-1.38.06t-1.38.156q.1-.792.156-1.908t.084-2.256q.024-1.14.036-2.16t.012-1.644q-.648 0-1.32-.024t-1.344-.024q-.624 0-1.32.012t-1.32.036q0 .648.012 1.668t.036 2.16q.024 1.14.072 2.24t.12 1.9q-.744-.12-1.484-.168t-1.516-.048q-.912 0-1.584.06t-1.3.156l.1-1.2q.048-.528.084-1.332t.048-1.728l.024-1.884q.012-.96.012-1.776zm22.92 2.328q.264.024.528.024h3.168q.264 0 .528-.024l-2.064-5.592zm-1.78 5.592q-.408-.1-.8-.156a5.524 5.524 0 00-.828-.06 5.36 5.36 0 00-.8.06 5.869 5.869 0 00-.74.156l1.416-3.192q.336-.72.744-1.668t.852-2.028q.444-1.08.924-2.256l.96-2.352q.264-.672.6-1.548t.648-1.728q.312-.852.576-1.536t.384-.972q.408.1.84.156a6.105 6.105 0 00.84.06 6.273 6.273 0 00.864-.06q.432-.06.84-.156.264.864.672 2.028t.876 2.452q.468 1.284.96 2.568t.924 2.388q.5 1.272.9 2.256t.756 1.86q.36.876.756 1.764T171 219a9.736 9.736 0 00-1.56-.18q-.864-.036-1.584-.036-.768 0-1.548.06t-1.548.156q-.24-.912-.492-1.752t-.564-1.68q-.792 0-1.584-.012t-1.584-.012q-.624 0-1.26.012t-1.26.012a16.413 16.413 0 00-.576 1.7q-.24.868-.504 1.732z" fill="#6c51e2"/></g></svg>